<svg width="21" height="21" viewBox="0 0 21 21" fill="none" xmlns="http://www.w3.org/2000/svg">
<path d="M14.8748 1.74984C16.0342 1.75331 17.1451 2.21539 17.9648 3.03517C18.7846 3.85495 19.2467 4.96582 19.2502 6.12516V14.8748C19.2467 16.0342 18.7846 17.1451 17.9648 17.9648C17.1451 18.7846 16.0342 19.2467 14.8748 19.2502H6.12516C4.96582 19.2467 3.85495 18.7846 3.03517 17.9648C2.21539 17.1451 1.75331 16.0342 1.74984 14.8748V6.12516C1.75331 4.96582 2.21539 3.85495 3.03517 3.03517C3.85495 2.21539 4.96582 1.75331 6.12516 1.74984H14.8748ZM14.8748 0H6.12516C2.75625 0 0 2.75625 0 6.12516V14.8748C0 18.2437 2.75625 21 6.12516 21H14.8748C18.2437 21 21 18.2437 21 14.8748V6.12516C21 2.75625 18.2437 0 14.8748 0Z" fill="#50C878"/>
<path d="M16.1873 6.12516C15.9278 6.12516 15.674 6.04818 15.4582 5.90396C15.2423 5.75974 15.0741 5.55476 14.9748 5.31493C14.8754 5.0751 14.8494 4.8112 14.9001 4.5566C14.9507 4.302 15.0757 4.06814 15.2593 3.88458C15.4428 3.70102 15.6767 3.57602 15.9313 3.52538C16.1859 3.47473 16.4498 3.50072 16.6896 3.60006C16.9294 3.6994 17.1344 3.86763 17.2786 4.08347C17.4229 4.29931 17.4998 4.55307 17.4998 4.81266C17.5002 4.98512 17.4665 5.15596 17.4007 5.31537C17.3349 5.47477 17.2382 5.61961 17.1162 5.74156C16.9943 5.86351 16.8495 5.96018 16.6901 6.026C16.5306 6.09183 16.3598 6.12553 16.1873 6.12516Z" fill="#50C878"/>
<path d="M10.5 6.99984C11.1923 6.99984 11.869 7.20512 12.4446 7.58973C13.0202 7.97433 13.4688 8.52098 13.7337 9.16055C13.9986 9.80012 14.068 10.5039 13.9329 11.1828C13.7978 11.8618 13.4645 12.4855 12.975 12.975C12.4855 13.4645 11.8618 13.7978 11.1828 13.9329C10.5039 14.068 9.80012 13.9986 9.16055 13.7337C8.52098 13.4688 7.97433 13.0202 7.58973 12.4446C7.20512 11.869 6.99984 11.1923 6.99984 10.5C7.00084 9.57201 7.36992 8.6823 8.02611 8.02611C8.6823 7.36992 9.57201 7.00084 10.5 6.99984ZM10.5 5.25C9.46165 5.25 8.44662 5.55791 7.58326 6.13478C6.7199 6.71166 6.04699 7.5316 5.64963 8.49091C5.25227 9.45022 5.14831 10.5058 5.35088 11.5242C5.55345 12.5426 6.05346 13.4781 6.78769 14.2123C7.52192 14.9465 8.45738 15.4466 9.47578 15.6491C10.4942 15.8517 11.5498 15.7477 12.5091 15.3504C13.4684 14.953 14.2883 14.2801 14.8652 13.4167C15.4421 12.5534 15.75 11.5384 15.75 10.5C15.75 9.10761 15.1969 7.77226 14.2123 6.78769C13.2277 5.80312 11.8924 5.25 10.5 5.25Z" fill="#50C878"/>
</svg>
