<svg width="21" height="21" viewBox="0 0 21 21" fill="none" xmlns="http://www.w3.org/2000/svg">
<g clip-path="url(#clip0_864_8)">
<path d="M10.5 0C7.71523 0 5.04451 1.10625 3.07538 3.07538C1.10625 5.04451 0 7.71523 0 10.5C0 13.2848 1.10625 15.9555 3.07538 17.9246C5.04451 19.8938 7.71523 21 10.5 21C13.2848 21 15.9555 19.8938 17.9246 17.9246C19.8938 15.9555 21 13.2848 21 10.5C21 7.71523 19.8938 5.04451 17.9246 3.07538C15.9555 1.10625 13.2848 0 10.5 0ZM15.3156 15.1436C15.2246 15.2914 15.0788 15.3972 14.9101 15.4378C14.7413 15.4784 14.5634 15.4505 14.4152 15.3602C11.949 13.8548 8.84625 13.5135 5.19094 14.3496C5.02159 14.3882 4.84383 14.358 4.69676 14.2656C4.54969 14.1731 4.44536 14.0261 4.40672 13.8567C4.36808 13.6874 4.3983 13.5096 4.49072 13.3625C4.58315 13.2155 4.73021 13.1111 4.89956 13.0725C8.90006 12.159 12.3309 12.5514 15.0977 14.2433C15.2457 14.334 15.3518 14.4797 15.3926 14.6484C15.4334 14.8172 15.4057 14.9953 15.3156 15.1436ZM16.6005 12.285C16.4868 12.47 16.3043 12.6022 16.0931 12.6526C15.882 12.7031 15.6594 12.6676 15.4744 12.5541C12.6525 10.8202 8.35012 10.3176 5.01113 11.3308C4.80789 11.3791 4.59389 11.348 4.41277 11.244C4.23165 11.1399 4.09706 10.9706 4.03645 10.7707C3.97584 10.5708 3.99378 10.3553 4.08661 10.1682C4.17944 9.98105 4.34016 9.83638 4.536 9.76369C8.34881 8.60738 13.0896 9.16781 16.3301 11.1589C16.5153 11.2724 16.6478 11.4548 16.6985 11.6659C16.7492 11.8771 16.714 12.0998 16.6005 12.285ZM16.7108 9.30825C13.3271 7.2975 7.74375 7.11244 4.51237 8.09287C4.26314 8.16841 3.9941 8.14185 3.76445 8.01902C3.5348 7.8962 3.36335 7.68717 3.28781 7.43794C3.21228 7.1887 3.23884 6.91966 3.36167 6.69001C3.48449 6.46036 3.69351 6.28891 3.94275 6.21338C7.65056 5.08856 13.8167 5.30512 17.7135 7.61775C17.9377 7.75072 18.0998 7.9673 18.1643 8.21984C18.2288 8.47239 18.1903 8.7402 18.0574 8.96437C17.9244 9.18855 17.7078 9.35072 17.4553 9.41521C17.2027 9.4797 16.9349 9.44122 16.7108 9.30825Z" fill="#50C878"/>
</g>
<defs>
<clipPath id="clip0_864_8">
<rect width="21" height="21" fill="white"/>
</clipPath>
</defs>
</svg>
